<?xml version="1.0" encoding="UTF-8"?>
<svg xmlns="http://www.w3.org/2000/svg" width="1024" height="1024" viewBox="0 0 1024 1024">
  <defs>
    <linearGradient id="metal" x1="0" y1="0" x2="0" y2="1">
      <stop offset="0%" stop-color="#8B95A3"/><stop offset="45%" stop-color="#5A6472"/><stop offset="100%" stop-color="#2E343D"/>
    </linearGradient>
    <linearGradient id="darkmetal" x1="0" y1="0" x2="0" y2="1">
      <stop offset="0%" stop-color="#4A515C"/><stop offset="100%" stop-color="#1B1F25"/>
    </linearGradient>
    <linearGradient id="wood" x1="0" y1="0" x2="0" y2="1">
      <stop offset="0%" stop-color="#A0653B"/><stop offset="100%" stop-color="#5C3317"/>
    </linearGradient>
    <linearGradient id="shine" x1="0" y1="0" x2="0" y2="1">
      <stop offset="0%" stop-color="#FFFFFF" stop-opacity="0.55"/><stop offset="100%" stop-color="#FFFFFF" stop-opacity="0"/>
    </linearGradient>
    <radialGradient id="glowCore" cx="50%" cy="50%" r="50%">
      <stop offset="0%" stop-color="#FFFFFF" stop-opacity="0.9"/><stop offset="100%" stop-color="#FFFFFF" stop-opacity="0"/>
    </radialGradient>
  </defs>
  <g transform="translate(128 128)">
    <ellipse cx="0" cy="58" rx="42" ry="10" fill="#000" opacity="0.2"/>
    <rect x="-34" y="-46" width="68" height="10" rx="5" fill="url(#metal)"/>
    <rect x="-34" y="-4" width="68" height="34" rx="8" fill="url(#darkmetal)"/>
    <g stroke="#14171C" stroke-width="6" stroke-linecap="round">
      <path d="M-30 30 v22 M30 30 v22"/>
    </g>
  </g>
  <g transform="translate(384 128)">
    <ellipse cx="0" cy="46" rx="40" ry="9" fill="#000" opacity="0.2"/>
    <rect x="-44" y="-40" width="88" height="60" rx="6" fill="#14171C" stroke="url(#metal)" stroke-width="5"/>
    <rect x="-36" y="-32" width="72" height="44" rx="3" fill="#1E8FE0" opacity="0.55"/>
    <rect x="-10" y="20" width="20" height="14" fill="url(#darkmetal)"/>
  </g>
  <g transform="translate(640 128)">
    <ellipse cx="0" cy="52" rx="44" ry="10" fill="#000" opacity="0.2"/>
    <rect x="-40" y="-30" width="80" height="76" rx="6" fill="url(#wood)" stroke="#2A1608" stroke-width="5"/>
    <path d="M-40 8 h80 M0 -30 v76" stroke="#2A1608" stroke-width="4" opacity="0.6"/>
  </g>
  <g transform="translate(896 128)">
    <ellipse cx="0" cy="30" rx="38" ry="9" fill="#000" opacity="0.2"/>
    <path d="M-36 14 a36 30 0 0 1 72 0 Z" fill="url(#metal)" stroke="#14171C" stroke-width="5"/>
    <rect x="-40" y="10" width="80" height="10" rx="5" fill="url(#darkmetal)"/>
  </g>
  <g transform="translate(128 384)">
    <ellipse cx="0" cy="50" rx="42" ry="9" fill="#000" opacity="0.2"/>
    <g fill="url(#metal)" stroke="#14171C" stroke-width="4">
      <circle cx="0" cy="0" r="40"/>
      <rect x="-6" y="-52" width="12" height="18"/><rect x="-6" y="34" width="12" height="18"/>
      <rect x="-52" y="-6" width="18" height="12"/><rect x="34" y="-6" width="18" height="12"/>
    </g>
    <circle cx="0" cy="0" r="16" fill="#14171C"/>
  </g>
  <g transform="translate(384 384)">
    <ellipse cx="0" cy="52" rx="36" ry="9" fill="#000" opacity="0.2"/>
    <rect x="-34" y="-48" width="68" height="96" rx="14" fill="#8F6A00" stroke="#4A3600" stroke-width="5"/>
    <rect x="-34" y="-26" width="68" height="10" fill="#4A3600" opacity="0.7"/>
    <rect x="-34" y="16" width="68" height="10" fill="#4A3600" opacity="0.7"/>
  </g>
  <g transform="translate(640 384)">
    <ellipse cx="0" cy="46" rx="52" ry="10" fill="#000" opacity="0.2"/>
    <path d="M-46 30 L-40 -8 L-6 -32 L28 -20 L48 10 L36 34 Z" fill="url(#metal)" stroke="#14171C" stroke-width="4"/>
    <path d="M-6 -32 L2 6 L48 10 M-40 -8 L-6 -32" fill="none" stroke="#14171C" stroke-width="3" opacity="0.5"/>
  </g>
  <g transform="translate(896 384)">
    <ellipse cx="0" cy="42" rx="34" ry="8" fill="#000" opacity="0.2"/>
    <path d="M0 -38 a34 34 0 0 1 34 34 q0 20 -14 26 h-40 q-14 -6 -14 -26 a34 34 0 0 1 34 -34 Z" fill="#E8E4D8" stroke="#8A8570" stroke-width="4"/>
    <circle cx="-13" cy="0" r="8" fill="#14171C"/><circle cx="13" cy="0" r="8" fill="#14171C"/>
    <path d="M-6 16 l-4 10 h20 l-4 -10 Z" fill="#8A8570"/>
  </g>
  <g transform="translate(128 640)">
    <ellipse cx="0" cy="52" rx="30" ry="8" fill="#000" opacity="0.2"/>
    <path d="M-8 52 V-40 q0 -10 8 -10 q8 0 8 10 V52 Z" fill="#3E9B4F" stroke="#215A2A" stroke-width="4"/>
    <path d="M-8 -6 q-26 0 -26 -22 q0 -10 10 -10 q10 0 10 12 v20 M8 10 q26 0 26 -20 q0 -10 -10 -10 q-10 0 -10 12 v18" fill="none" stroke="#3E9B4F" stroke-width="12" stroke-linecap="round"/>
  </g>
  <g transform="translate(384 640)">
    <ellipse cx="0" cy="30" rx="40" ry="8" fill="#000" opacity="0.2"/>
    <ellipse cx="-6" cy="10" rx="28" ry="14" fill="#8F6A00" stroke="#4A3600" stroke-width="4"/>
    <path d="M18 4 q30 -6 34 -30 q2 -12 -8 -12 q-8 0 -10 10" fill="none" stroke="#8F6A00" stroke-width="7" stroke-linecap="round"/>
    <path d="M-30 6 l-18 -6 M-28 16 l-18 2" stroke="#4A3600" stroke-width="4" stroke-linecap="round"/>
  </g>
  <g transform="translate(640 640)">
    <ellipse cx="0" cy="54" rx="34" ry="9" fill="#000" opacity="0.2"/>
    <rect x="-7" y="24" width="14" height="26" fill="#5C3317"/>
    <path d="M0 -48 L34 6 H-34 Z" fill="#2E7D46" stroke="#164A28" stroke-width="4"/>
    <path d="M0 -20 L26 26 H-26 Z" fill="#3B9457" stroke="#164A28" stroke-width="4"/>
  </g>
  <g transform="translate(896 640)">
    <ellipse cx="0" cy="38" rx="26" ry="7" fill="#000" opacity="0.2"/>
    <rect x="-8" y="6" width="16" height="30" rx="6" fill="#F3E7D0"/>
    <path d="M-32 8 a32 22 0 0 1 64 0 Z" fill="#E33D2E" stroke="#7A1408" stroke-width="4"/>
    <circle cx="-14" cy="-4" r="5" fill="#F3E7D0"/><circle cx="10" cy="-8" r="4" fill="#F3E7D0"/><circle cx="4" cy="2" r="4" fill="#F3E7D0"/>
  </g>
  <g transform="translate(128 896)">
    <ellipse cx="0" cy="52" rx="24" ry="8" fill="#000" opacity="0.2"/>
    <path d="M0 -50 q22 20 22 60 h-44 q0 -40 22 -60 Z" fill="#E8F3EE" stroke="#31536B" stroke-width="4"/>
    <path d="M-22 20 l-16 24 h16 M22 20 l16 24 h-16" fill="#FF4444" stroke="#7A1408" stroke-width="3"/>
    <circle cx="0" cy="-8" r="10" fill="#38B6FF" stroke="#0E5E8F" stroke-width="3"/>
  </g>
  <g transform="translate(384 896)">
    <ellipse cx="0" cy="30" rx="46" ry="10" fill="#000" opacity="0.2"/>
    <ellipse cx="0" cy="6" rx="52" ry="14" fill="url(#metal)" stroke="#14171C" stroke-width="4"/>
    <path d="M-22 -6 a22 20 0 0 1 44 0 Z" fill="#7FE6FF" opacity="0.7" stroke="#14171C" stroke-width="3"/>
    <circle cx="-24" cy="10" r="5" fill="#FFE13C"/><circle cx="0" cy="14" r="5" fill="#FFE13C"/><circle cx="24" cy="10" r="5" fill="#FFE13C"/>
  </g>
  <g transform="translate(640 896)">
    <g stroke="#E8F7FF" stroke-width="8" stroke-linecap="round">
      <path d="M0 -40 V40 M-34 -20 L34 20 M-34 20 L34 -20"/>
    </g>
    <g stroke="#B9E7FF" stroke-width="5" stroke-linecap="round">
      <path d="M0 -40 l-8 10 M0 -40 l8 10 M0 40 l-8 -10 M0 40 l8 -10"/>
      <path d="M-34 -20 l12 2 M34 20 l-12 -2 M-34 20 l12 -2 M34 -20 l-12 2"/>
    </g>
  </g>
  <g transform="translate(896 896)">
    <ellipse cx="0" cy="44" rx="52" ry="9" fill="#000" opacity="0.2"/>
    <path d="M-50 40 L-14 -34 L10 -6 L24 -30 L50 40 Z" fill="#8FA8C0" stroke="#425A72" stroke-width="4"/>
    <path d="M-14 -34 L-2 -10 L10 -6 M24 -30 L14 -8 L26 4" fill="#F3F7FF" stroke="#8FA8C0" stroke-width="3"/>
  </g>
</svg>